<mxfile host="app.diagrams.net" agent="Mozilla/5.0 (Windows NT 10.0; Win64; x64) AppleWebKit/537.36 (KHTML, like Gecko) Chrome/123.0.0.0 Safari/537.36" version="24.7.15">
  <diagram name="第 1 页" id="WDSTVlQ06t2ktcyGIUlL">
    <mxGraphModel dx="1050" dy="565" grid="1" gridSize="10" guides="1" tooltips="1" connect="1" arrows="1" fold="1" page="1" pageScale="1" pageWidth="827" pageHeight="1169" math="0" shadow="0">
      <root>
        <mxCell id="0" />
        <mxCell id="1" parent="0" />
        <mxCell id="wE1w8T7-MvEPZS3S5A1o-1" value="Actor" style="shape=umlActor;verticalLabelPosition=bottom;verticalAlign=top;html=1;outlineConnect=0;" vertex="1" parent="1">
          <mxGeometry x="384" y="390" width="30" height="60" as="geometry" />
        </mxCell>
        <mxCell id="wE1w8T7-MvEPZS3S5A1o-3" value="反馈记录" style="shape=cylinder3;whiteSpace=wrap;html=1;boundedLbl=1;backgroundOutline=1;size=15;" vertex="1" parent="1">
          <mxGeometry x="369" y="80" width="60" height="80" as="geometry" />
        </mxCell>
        <mxCell id="wE1w8T7-MvEPZS3S5A1o-4" value="存为向量数据" style="shape=cube;whiteSpace=wrap;html=1;boundedLbl=1;backgroundOutline=1;darkOpacity=0.05;darkOpacity2=0.1;" vertex="1" parent="1">
          <mxGeometry x="580" y="262.5" width="110" height="67.5" as="geometry" />
        </mxCell>
        <mxCell id="wE1w8T7-MvEPZS3S5A1o-10" style="edgeStyle=orthogonalEdgeStyle;rounded=0;orthogonalLoop=1;jettySize=auto;html=1;exitX=1;exitY=0.5;exitDx=0;exitDy=0;exitPerimeter=0;entryX=1;entryY=0;entryDx=0;entryDy=52.5;entryPerimeter=0;" edge="1" parent="1" source="wE1w8T7-MvEPZS3S5A1o-7" target="wE1w8T7-MvEPZS3S5A1o-3">
          <mxGeometry relative="1" as="geometry">
            <Array as="points">
              <mxPoint x="540" y="285" />
              <mxPoint x="540" y="133" />
            </Array>
          </mxGeometry>
        </mxCell>
        <mxCell id="wE1w8T7-MvEPZS3S5A1o-7" value="是否&quot;&lt;span style=&quot;font-size:10.5pt;mso-bidi-font-size:11.0pt;&lt;br/&gt;font-family:等线;mso-ascii-theme-font:minor-latin;mso-fareast-theme-font:minor-fareast;&lt;br/&gt;mso-hansi-theme-font:minor-latin;mso-bidi-font-family:&amp;quot;Times New Roman&amp;quot;;&lt;br/&gt;mso-bidi-theme-font:minor-bidi;mso-ansi-language:EN-US;mso-fareast-language:&lt;br/&gt;ZH-CN;mso-bidi-language:AR-SA&quot;&gt;存为样例&quot;&lt;/span&gt;" style="strokeWidth=2;html=1;shape=mxgraph.flowchart.decision;whiteSpace=wrap;" vertex="1" parent="1">
          <mxGeometry x="333.5" y="250" width="131" height="70" as="geometry" />
        </mxCell>
        <mxCell id="wE1w8T7-MvEPZS3S5A1o-8" style="edgeStyle=orthogonalEdgeStyle;rounded=0;orthogonalLoop=1;jettySize=auto;html=1;exitX=0.5;exitY=0;exitDx=0;exitDy=0;exitPerimeter=0;entryX=0.5;entryY=1;entryDx=0;entryDy=0;entryPerimeter=0;" edge="1" parent="1" source="wE1w8T7-MvEPZS3S5A1o-1" target="wE1w8T7-MvEPZS3S5A1o-7">
          <mxGeometry relative="1" as="geometry" />
        </mxCell>
        <mxCell id="wE1w8T7-MvEPZS3S5A1o-13" value="提交反馈" style="edgeLabel;html=1;align=center;verticalAlign=middle;resizable=0;points=[];" vertex="1" connectable="0" parent="wE1w8T7-MvEPZS3S5A1o-8">
          <mxGeometry x="-0.3714" relative="1" as="geometry">
            <mxPoint as="offset" />
          </mxGeometry>
        </mxCell>
        <mxCell id="wE1w8T7-MvEPZS3S5A1o-9" style="edgeStyle=orthogonalEdgeStyle;rounded=0;orthogonalLoop=1;jettySize=auto;html=1;exitX=0.5;exitY=0;exitDx=0;exitDy=0;exitPerimeter=0;entryX=0.5;entryY=1;entryDx=0;entryDy=0;entryPerimeter=0;" edge="1" parent="1" source="wE1w8T7-MvEPZS3S5A1o-7" target="wE1w8T7-MvEPZS3S5A1o-3">
          <mxGeometry relative="1" as="geometry" />
        </mxCell>
        <mxCell id="wE1w8T7-MvEPZS3S5A1o-14" value="false" style="edgeLabel;html=1;align=center;verticalAlign=middle;resizable=0;points=[];" vertex="1" connectable="0" parent="wE1w8T7-MvEPZS3S5A1o-9">
          <mxGeometry x="-0.2667" relative="1" as="geometry">
            <mxPoint as="offset" />
          </mxGeometry>
        </mxCell>
        <mxCell id="wE1w8T7-MvEPZS3S5A1o-12" style="edgeStyle=orthogonalEdgeStyle;rounded=0;orthogonalLoop=1;jettySize=auto;html=1;exitX=1;exitY=0.5;exitDx=0;exitDy=0;exitPerimeter=0;entryX=0;entryY=0;entryDx=0;entryDy=22.5;entryPerimeter=0;" edge="1" parent="1" source="wE1w8T7-MvEPZS3S5A1o-7" target="wE1w8T7-MvEPZS3S5A1o-4">
          <mxGeometry relative="1" as="geometry" />
        </mxCell>
        <mxCell id="wE1w8T7-MvEPZS3S5A1o-15" value="true" style="edgeLabel;html=1;align=center;verticalAlign=middle;resizable=0;points=[];" vertex="1" connectable="0" parent="wE1w8T7-MvEPZS3S5A1o-12">
          <mxGeometry x="-0.2675" relative="1" as="geometry">
            <mxPoint as="offset" />
          </mxGeometry>
        </mxCell>
      </root>
    </mxGraphModel>
  </diagram>
</mxfile>
